HIERARCHY
ROOT hip
{
  OFFSET 0.0 0.0 0.0
  CHANNELS 6 Xposition Yposition Zposition Zrotation Yrotation Xrotation
  JOINT abdomen
  {
    OFFSET 0.0 20.6881 -0.73152
    CHANNELS 3 Zrotation Xrotation Yrotation
    JOINT chest
    {
      OFFSET 0.0 11.7043 -0.48768
      CHANNELS 3 Zrotation Xrotation Yrotation
      JOINT neck
      {
        OFFSET 0.0 22.1894 -2.19456
        CHANNELS 3 Zrotation Xrotation Yrotation
        JOINT head
        {
          OFFSET -0.24384 7.07133 1.2192
          CHANNELS 3 Zrotation Xrotation Yrotation
          JOINT leftEye
          {
            OFFSET 4.14528 8.04674 8.04672
            CHANNELS 3 Zrotation Xrotation Yrotation
            End Site
            {
              OFFSET 1.0 0.0 0.0
            }
          }
          JOINT rightEye
          {
            OFFSET -3.6576 8.04674 8.04672
            CHANNELS 3 Zrotation Xrotation Yrotation
            End Site
            {
              OFFSET 1.0 0.0 0.0
            }
          }
        }
      }
      JOINT rCollar
      {
        OFFSET -2.68224 19.2634 -4.8768
        CHANNELS 3 Zrotation Xrotation Yrotation
        JOINT rShldr
        {
          OFFSET -8.77824 -1.95073 1.46304
          CHANNELS 3 Zrotation Xrotation Yrotation
          JOINT rForeArm
          {
            OFFSET -28.1742 -1.7115 0.48768
            CHANNELS 3 Zrotation Xrotation Yrotation
            JOINT rHand
            {
              OFFSET -22.5879 0.773209 7.07136
              CHANNELS 3 Zrotation Xrotation Yrotation
              JOINT rThumb1
              {
                OFFSET -1.2192 -0.487915 3.41376
                CHANNELS 3 Zrotation Xrotation Yrotation
                JOINT rThumb2
                {
                  OFFSET -3.37035 -0.52449 3.41376
                  CHANNELS 3 Zrotation Xrotation Yrotation
                  End Site
                  {
                    OFFSET -1.78271 -1.18214 1.43049
                  }
                }
              }
              JOINT rIndex1
              {
                OFFSET -7.75947 0.938293 5.60832
                CHANNELS 3 Zrotation Xrotation Yrotation
                JOINT rIndex2
                {
                  OFFSET -2.54057 -0.884171 1.56538
                  CHANNELS 3 Zrotation Xrotation Yrotation
                  End Site
                  {
                    OFFSET -1.62519 -0.234802 1.16502
                  }
                }
              }
              JOINT rMid1
              {
                OFFSET -8.24714 1.18213 3.41376
                CHANNELS 3 Zrotation Xrotation Yrotation
                JOINT rMid2
                {
                  OFFSET -3.10165 -0.590103 1.0647
                  CHANNELS 3 Zrotation Xrotation Yrotation
                  End Site
                  {
                    OFFSET -2.48547 -0.328903 0.83742
                  }
                }
              }
              JOINT rRing1
              {
                OFFSET -8.82822 0.546677 1.51678
                CHANNELS 3 Zrotation Xrotation Yrotation
                JOINT rRing2
                {
                  OFFSET -2.60934 -0.819778 -0.0198488
                  CHANNELS 3 Zrotation Xrotation Yrotation
                  End Site
                  {
                    OFFSET -2.33842 -0.294052 0.168128
                  }
                }
              }
              JOINT rPinky1
              {
                OFFSET -8.27202 -0.0477905 -0.4584
                CHANNELS 3 Zrotation Xrotation Yrotation
                JOINT rPinky2
                {
                  OFFSET -1.82734 -0.647385 -0.700984
                  CHANNELS 3 Zrotation Xrotation Yrotation
                  End Site
                  {
                    OFFSET -1.69225 -0.51767 -0.607171
                  }
                }
              }
            }
          }
        }
      }
      JOINT lCollar
      {
        OFFSET 2.68224 19.2634 -4.8768
        CHANNELS 3 Zrotation Xrotation Yrotation
        JOINT lShldr
        {
          OFFSET 8.77824 -1.95073 1.46304
          CHANNELS 3 Zrotation Xrotation Yrotation
          JOINT lForeArm
          {
            OFFSET 28.1742 -1.7115 0.48768
            CHANNELS 3 Zrotation Xrotation Yrotation
            JOINT lHand
            {
              OFFSET 22.5879 0.773209 7.07136
              CHANNELS 3 Zrotation Xrotation Yrotation
              JOINT lThumb1
              {
                OFFSET 1.2192 -0.487915 3.41376
                CHANNELS 3 Zrotation Xrotation Yrotation
                JOINT lThumb2
                {
                  OFFSET 3.37035 -0.52449 3.41376
                  CHANNELS 3 Zrotation Xrotation Yrotation
                  End Site
                  {
                    OFFSET 1.78271 -1.18214 1.43049
                  }
                }
              }
              JOINT lIndex1
              {
                OFFSET 7.75947 0.938293 5.60832
                CHANNELS 3 Zrotation Xrotation Yrotation
                JOINT lIndex2
                {
                  OFFSET 2.54057 -0.884171 1.56538
                  CHANNELS 3 Zrotation Xrotation Yrotation
                  End Site
                  {
                    OFFSET 1.62519 -0.234802 1.16502
                  }
                }
              }
              JOINT lMid1
              {
                OFFSET 8.24714 1.18213 3.41376
                CHANNELS 3 Zrotation Xrotation Yrotation
                JOINT lMid2
                {
                  OFFSET 3.10165 -0.590103 1.0647
                  CHANNELS 3 Zrotation Xrotation Yrotation
                  End Site
                  {
                    OFFSET 2.48547 -0.328903 0.83742
                  }
                }
              }
              JOINT lRing1
              {
                OFFSET 8.82822 0.546677 1.51678
                CHANNELS 3 Zrotation Xrotation Yrotation
                JOINT lRing2
                {
                  OFFSET 2.60934 -0.819778 -0.0198488
                  CHANNELS 3 Zrotation Xrotation Yrotation
                  End Site
                  {
                    OFFSET 2.33842 -0.294052 0.168128
                  }
                }
              }
              JOINT lPinky1
              {
                OFFSET 8.27202 -0.0477905 -0.4584
                CHANNELS 3 Zrotation Xrotation Yrotation
                JOINT lPinky2
                {
                  OFFSET 1.82734 -0.647385 -0.700984
                  CHANNELS 3 Zrotation Xrotation Yrotation
                  End Site
                  {
                    OFFSET 1.69225 -0.51767 -0.607171
                  }
                }
              }
            }
          }
        }
      }
    }
  }
  JOINT rButtock
  {
    OFFSET -8.77824 4.35084 1.2192
    CHANNELS 3 Zrotation Xrotation Yrotation
    JOINT rThigh
    {
      OFFSET 0.0 -1.70687 -2.19456
      CHANNELS 3 Zrotation Xrotation Yrotation
      JOINT rShin
      {
        OFFSET 0.0 -36.8199 0.73152
        CHANNELS 3 Zrotation Xrotation Yrotation
        JOINT rFoot
        {
          OFFSET 0.73152 -45.1104 -5.12064
          CHANNELS 3 Zrotation Xrotation Yrotation
          End Site
          {
            OFFSET -1.1221 -3.69964 12.103
          }
        }
      }
    }
  }
  JOINT lButtock
  {
    OFFSET 8.77824 4.35084 1.2192
    CHANNELS 3 Zrotation Xrotation Yrotation
    JOINT lThigh
    {
      OFFSET 0.0 -1.70687 -2.19456
      CHANNELS 3 Zrotation Xrotation Yrotation
      JOINT lShin
      {
        OFFSET 0.0 -36.8199 0.73152
        CHANNELS 3 Zrotation Xrotation Yrotation
        JOINT lFoot
        {
          OFFSET -0.73152 -45.1104 -5.12064
          CHANNELS 3 Zrotation Xrotation Yrotation
          End Site
          {
            OFFSET 1.1221 -3.69964 12.103
          }
        }
      }
    }
  }
}
MOTION
Frames: 7
Frame Time: 0.00833333
-51.4025 79.9052 5.84629 134.28 83.182 144.093 -4.61279 0.382557 3.65867 -5.52034 -18.8288 0.266188 3.10246 -1.78309 -2.68041 5.44176 10.2925 -5.55666 -0.0 0.0 0.0 -0.0 0.0 0.0 -5.6182e-14 7.27278e-13 2.17144e-13 90.3108 21.5245 -32.9784 -11.5812 -5.16184 20.798 -0.1004 -9.01224 -1.2772 2.7609e-09 1.72586e-09 -4.71885e-09 4.79332e-09 2.97927e-09 -8.14731e-09 2.7609e-09 1.72587e-09 -4.71886e-09 7.73091 5.47488 0.417314 2.76089e-09 1.72586e-09 -4.71885e-09 2.90554 0.965183 0.102902 2.7609e-09 1.72587e-09 -4.71886e-09 10.2786 0.731801 0.0259123 2.76089e-09 1.72587e-09 -4.71884e-09 2.22167 -0.733487 -0.20892 -5.63338e-14 7.27266e-13 2.16949e-13 -63.4016 50.8649 -2.47661 19.5857 -12.5001 -37.6812 0.00392179 2.29246 -0.322253 3.98936e-10 6.04534e-10 -1.03243e-09 7.00913e-10 1.042e-09 -1.7838e-09 3.98935e-10 6.04533e-10 -1.03242e-09 -7.73091 5.47488 -0.417314 3.98936e-10 6.04535e-10 -1.03243e-09 -2.90554 0.965183 -0.102902 3.98932e-10 6.04534e-10 -1.03243e-09 -10.2786 0.731801 -0.0259123 3.9894e-10 6.04537e-10 -1.03243e-09 -2.22167 -0.733487 0.20892 -2.03217e-16 0.0 -3.88251e-19 2.83805 -33.6928 21.8102 0.0188352 5.3412 0.170522 -14.8549 -27.913 -31.3962 2.03217e-16 0.0 3.88251e-19 -15.9482 9.78028 -23.2726 0.0923517 5.74801 0.825281 -6.94726 -22.774 -10.3214
-48.921 79.5492 6.19652 137.6 83.0593 147.221 -4.1423 0.236008 3.51999 -5.72709 -18.7038 0.224372 2.72479 -1.89968 -2.65977 5.39105 10.2074 -5.42776 -0.0 0.0 0.0 -0.0 0.0 0.0 -1.24687e-13 -2.8739e-13 1.65418e-13 90.2599 21.7963 -32.8281 -11.3177 -4.98339 20.2938 -0.0936447 -8.70446 -1.2329 2.7127e-09 1.4329e-09 -3.38194e-09 4.70231e-09 2.47028e-09 -5.8346e-09 2.71271e-09 1.4329e-09 -3.38196e-09 7.73091 5.47488 0.417314 2.7127e-09 1.4329e-09 -3.38194e-09 2.90554 0.965183 0.102902 2.71271e-09 1.4329e-09 -3.38196e-09 10.2786 0.731801 0.0259123 2.71269e-09 1.4329e-09 -3.38194e-09 2.22167 -0.733487 -0.20892 -1.24747e-13 -2.87404e-13 1.65259e-13 -64.6362 51.4503 -1.29323 19.72 -12.6643 -38.0025 0.0104904 3.14308 -0.442102 1.05351e-09 4.07101e-10 -6.66657e-10 1.82807e-09 7.0153e-10 -1.15472e-09 1.05351e-09 4.07102e-10 -6.66659e-10 -7.73091 5.47488 -0.417314 1.05351e-09 4.07104e-10 -6.66662e-10 -2.90554 0.965183 -0.102902 1.0535e-09 4.07102e-10 -6.66657e-10 -10.2786 0.731801 -0.0259123 1.05351e-09 4.07104e-10 -6.66664e-10 -2.22167 -0.733487 0.20892 -2.03217e-16 0.0 -3.88251e-19 2.85879 -33.5999 19.9194 0.0207482 6.93151 0.287559 -12.1329 -20.764 -32.6245 2.03217e-16 0.0 3.88251e-19 -15.3622 10.3393 -22.2099 0.0746555 7.34687 0.576562 -6.12931 -20.9526 -9.25858
-46.3858 79.2312 6.62818 141.403 83.3355 150.802 -3.31884 0.127744 3.60193 -5.95227 -18.5667 0.237022 2.4671 -1.97554 -2.61476 5.32039 10.1565 -5.27547 -0.0 0.0 0.0 -0.0 0.0 0.0 -1.6062e-13 -8.83094e-13 1.30452e-13 90.2019 22.3316 -32.4792 -11.0999 -4.83715 19.8811 -0.0895005 -8.50281 -1.20393 2.6176e-09 1.21125e-09 -2.44173e-09 4.53273e-09 2.08571e-09 -4.20851e-09 2.61761e-09 1.21125e-09 -2.44175e-09 7.73091 5.47488 0.417314 2.6176e-09 1.21125e-09 -2.44173e-09 2.90554 0.965183 0.102902 2.61761e-09 1.21125e-09 -2.44174e-09 10.2786 0.731801 0.0259123 2.6176e-09 1.21125e-09 -2.44173e-09 2.22167 -0.733487 -0.20892 -1.60626e-13 -8.83108e-13 1.30303e-13 -66.067 51.8374 0.230087 19.7907 -12.7509 -38.1744 0.0169877 3.71841 -0.52333 1.35034e-09 2.82704e-10 -4.26477e-10 2.33812e-09 4.87188e-10 -7.41022e-10 1.35034e-09 2.82705e-10 -4.26481e-10 -7.73091 5.47488 -0.417314 1.35034e-09 2.82706e-10 -4.26484e-10 -2.90554 0.965183 -0.102902 1.35034e-09 2.82703e-10 -4.26477e-10 -10.2786 0.731801 -0.0259123 1.35035e-09 2.82705e-10 -4.26484e-10 -2.22167 -0.733487 0.20892 -2.03217e-16 0.0 -3.88251e-19 3.39336 -33.4978 17.8557 0.0180029 8.80273 0.367462 -9.40492 -15.5542 -32.7296 2.03217e-16 0.0 3.88251e-19 -14.4479 10.4535 -20.6234 0.0634357 9.4833 0.366114 -4.98268 -18.7851 -7.43779
-43.8307 79.0198 7.25586 148.869 84.19 158.094 -1.96953 0.0315679 4.01597 -6.22646 -18.4056 0.325012 2.36142 -1.99875 -2.53749 5.20495 10.1264 -5.09069 -0.0 0.0 0.0 -0.0 0.0 0.0 -1.44805e-13 -8.25114e-13 1.21685e-13 90.11 23.1877 -31.8877 -10.9081 -4.7102 19.5186 -0.0890255 -8.47445 -1.19988 2.40832e-09 1.04994e-09 -2.03205e-09 4.16919e-09 1.80697e-09 -3.50088e-09 2.40833e-09 1.04994e-09 -2.03207e-09 7.73091 5.47488 0.417314 2.40831e-09 1.04994e-09 -2.03206e-09 2.90554 0.965183 0.102902 2.40833e-09 1.04994e-09 -2.03207e-09 10.2786 0.731801 0.0259123 2.40831e-09 1.04994e-09 -2.03205e-09 2.22167 -0.733487 -0.20892 -1.44815e-13 -8.25126e-13 1.21502e-13 -67.7875 51.9895 2.23002 19.8007 -12.7607 -38.2061 0.0196444 3.91655 -0.551344 1.1012e-09 2.59696e-10 -4.01155e-10 1.90614e-09 4.47933e-10 -6.96211e-10 1.1012e-09 2.59697e-10 -4.01155e-10 -7.73091 5.47488 -0.417314 1.1012e-09 2.59696e-10 -4.01161e-10 -2.90554 0.965183 -0.102902 1.1012e-09 2.59693e-10 -4.01156e-10 -10.2786 0.731801 -0.0259123 1.10121e-09 2.59696e-10 -4.01163e-10 -2.22167 -0.733487 0.20892 -2.03217e-16 0.0 -3.88251e-19 4.64914 -33.5484 15.3274 0.0181 11.2736 0.405974 -7.00821 -12.5172 -30.653 2.03217e-16 0.0 3.88251e-19 -12.9744 10.0637 -18.2432 0.0619789 12.1762 0.209026 -3.52649 -15.9167 -4.65574
-41.2896 78.9759 8.01871 160.219 85.2896 169.264 -0.213845 -0.0416404 4.677 -6.55878 -18.2194 0.468076 2.34202 -1.98177 -2.43935 5.07487 10.1146 -4.88144 -0.0 0.0 0.0 -0.0 0.0 0.0 -9.81547e-14 -4.06769e-13 1.24635e-13 89.965 24.3029 -31.0838 -10.7323 -4.59576 19.1866 -0.0909728 -8.56565 -1.21298 2.05923e-09 8.5506e-10 -1.79554e-09 3.56523e-09 1.47106e-09 -3.09359e-09 2.05923e-09 8.55063e-10 -1.79555e-09 7.73091 5.47488 0.417314 2.05922e-09 8.55062e-10 -1.79554e-09 2.90554 0.965183 0.102902 2.05924e-09 8.55065e-10 -1.79555e-09 10.2786 0.731801 0.0259123 2.05922e-09 8.55063e-10 -1.79554e-09 2.22167 -0.733487 -0.20892 -9.82013e-14 -4.06776e-13 1.2439e-13 -69.7533 51.9046 4.6428 19.7638 -12.712 -38.1272 0.0192859 3.88694 -0.547159 5.18151e-10 2.80821e-10 -4.88317e-10 8.9763e-10 4.84949e-10 -8.44391e-10 5.18147e-10 2.80821e-10 -4.8831e-10 -7.73091 5.47488 -0.417314 5.18149e-10 2.80818e-10 -4.88321e-10 -2.90554 0.965183 -0.102902 5.18144e-10 2.80816e-10 -4.88318e-10 -10.2786 0.731801 -0.0259123 5.18158e-10 2.80819e-10 -4.88326e-10 -2.22167 -0.733487 0.20892 -2.03217e-16 0.0 -3.88251e-19 6.39 -33.6307 12.2688 0.0201785 14.2844 0.427083 -4.90152 -10.3478 -27.1558 2.03217e-16 0.0 3.88251e-19 -11.0086 9.2139 -15.2402 0.0728641 15.3945 0.0655973 -2.05955 -12.4353 -1.11386
-38.7898 79.13 8.76319 172.993 86.2853 181.731 1.65058 -0.0409859 5.39802 -6.87547 -18.0357 0.633868 2.38584 -1.94209 -2.32947 4.96238 10.1534 -4.66197 -0.0 0.0 0.0 -0.0 0.0 0.0 -4.81346e-14 6.38116e-14 1.28928e-13 89.7876 25.6126 -30.1418 -10.6299 -4.53052 18.9923 -0.0930838 -8.6656 -1.22735 1.74094e-09 7.21739e-10 -1.69906e-09 3.01532e-09 1.24203e-09 -2.92859e-09 1.74094e-09 7.21742e-10 -1.69907e-09 7.73091 5.47488 0.417314 1.74093e-09 7.21743e-10 -1.69907e-09 2.90554 0.965183 0.102902 1.74094e-09 7.21745e-10 -1.69907e-09 10.2786 0.731801 0.0259123 1.74093e-09 7.21744e-10 -1.69905e-09 2.22167 -0.733487 -0.20892 -4.82232e-14 6.38087e-14 1.28619e-13 -71.6927 51.61 7.13278 19.6663 -12.5921 -37.8934 0.0175286 3.74685 -0.527359 -1.34325e-10 3.25223e-10 -5.63888e-10 -2.3048e-10 5.62193e-10 -9.72114e-10 -1.34332e-10 3.25222e-10 -5.63874e-10 -7.73091 5.47488 -0.417314 -1.34328e-10 3.25216e-10 -5.6389e-10 -2.90554 0.965183 -0.102902 -1.34334e-10 3.25215e-10 -5.63889e-10 -10.2786 0.731801 -0.0259123 -1.34317e-10 3.25219e-10 -5.63898e-10 -2.22167 -0.733487 0.20892 -2.03217e-16 0.0 -3.88251e-19 8.35007 -33.4251 9.39576 0.019232 17.1627 0.422098 -3.32186 -8.78926 -23.4569 2.03217e-16 0.0 3.88251e-19 -8.79711 7.90106 -12.1333 0.0926187 19.1188 -0.0719577 -0.887365 -8.97478 2.75352
-36.37 79.4005 9.57031 188.73 87.1064 197.051 3.32303 0.0841265 5.99198 -7.10201 -17.8818 0.790269 2.46997 -1.89718 -2.21702 4.89915 10.2751 -4.44644 -0.0 0.0 0.0 -0.0 0.0 0.0 -2.22093e-14 2.78497e-13 1.24191e-13 89.6051 27.0496 -29.1357 -10.6587 -4.55137 19.0426 -0.0929483 -8.66349 -1.22703 1.62405e-09 7.45099e-10 -1.7095e-09 2.81394e-09 1.28393e-09 -2.9478e-09 1.62405e-09 7.45103e-10 -1.7095e-09 7.73091 5.47488 0.417314 1.62405e-09 7.45105e-10 -1.7095e-09 2.90554 0.965183 0.102902 1.62406e-09 7.45106e-10 -1.7095e-09 10.2786 0.731801 0.0259123 1.62405e-09 7.45106e-10 -1.70948e-09 2.22167 -0.733487 -0.20892 -2.23199e-14 2.78497e-13 1.23843e-13 -73.348 51.1585 9.37667 19.4922 -12.3863 -37.4611 0.0160415 3.61354 -0.508531 -5.91733e-10 3.72045e-10 -5.03794e-10 -1.02126e-09 6.43623e-10 -8.65933e-10 -5.91742e-10 3.72044e-10 -5.03774e-10 -7.73091 5.47488 -0.417314 -5.91737e-10 3.72037e-10 -5.03794e-10 -2.90554 0.965183 -0.102902 -5.91743e-10 3.72036e-10 -5.03794e-10 -10.2786 0.731801 -0.0259123 -5.91726e-10 3.72039e-10 -5.03803e-10 -2.22167 -0.733487 0.20892 -2.03217e-16 0.0 -3.88251e-19 10.3064 -32.6738 7.45468 0.0120471 19.2363 0.380618 -2.34332 -7.72986 -20.7918 2.03217e-16 0.0 3.88251e-19 -6.62929 6.15745 -9.43305 0.119247 23.33 -0.212618 -0.0497088 -6.20759 6.57624
